<svg xmlns="http://www.w3.org/2000/svg" width="68.602" height="21.76" viewBox="0 0 68.602 21.76">
  <g id="logo-5" transform="translate(-29.438 -39.56)">
    <path id="Pfad_3" data-name="Pfad 3" d="M97.55,41.39h2v15.9h-2Zm4.77,0h2a1.47,1.47,0,0,1,.31,0,6,6,0,1,1,0,11.93h-.31v4h-2Zm2,2V51.3h.31a4,4,0,1,0,0-7.93,1.47,1.47,0,0,0-.32.07Zm14.41-.85-1.48,1.17a1.94,1.94,0,0,0-3.33,1.13V45c0,.88.61,1.47,1.8,1.55,4.58.28,6.68,2.43,6.68,5.27V52a5.9,5.9,0,0,1-10.17,3.42l1.53-1.18a3.6,3.6,0,0,0,2.8,1.14A3.74,3.74,0,0,0,120.48,52v-.14c0-2.67-2.62-3.16-4.89-3.38-2.1-.2-3.61-1.51-3.61-3.4V45a3.85,3.85,0,0,1,3.93-3.56,3.74,3.74,0,0,1,2.81,1.15Zm11.5,12.72c2.49,0,4.46-2.69,4.46-6v-8h2v8c0,4.4-2.88,7.95-6.42,7.95s-6.42-3.55-6.42-7.95v-8h2v8c-.08,3.36,1.89,6.05,4.37,6.05Zm21.81,2h-2v-9.9l-4.61,6-4.61-6v9.93h-2V41.39l6.6,8.69,6.6-8.69Z" transform="translate(-54 1)" fill="#1b7ce4"/>
    <path id="Pfad_4" data-name="Pfad 4" d="M32.942,37.156a3.6,3.6,0,0,0-7.192,0V48.029l2.961,2.122V55.32H29.98V50.151l2.961-2.122Zm-1.269,6.081L29.98,44.929V43.343l1.692-1.692Zm-4.627-1.586,1.692,1.692v1.586l-1.692-1.692Zm4.627-1.8-2.327,2.327L27.019,39.8V38.213l2.327,2.327,2.327-2.327Zm-2.327-5.024a2.34,2.34,0,0,1,2.247,1.725L29.346,38.8,27.1,36.554A2.34,2.34,0,0,1,29.346,34.8ZM27.019,47.388v-2.38L28.711,46.7v1.89ZM29.98,48.6V46.7l1.692-1.692v2.373Z" transform="translate(3.688 6)" fill="#1b7ce4"/>
  </g>
</svg>
