<svg xmlns="http://www.w3.org/2000/svg" width="87.67" height="29.2" viewBox="0 0 87.67 29.2">
  <g id="logo-6" transform="translate(-24.05 -35.4)">
    <path id="Pfad_10" data-name="Pfad 10" d="M37.45,39.65V35.4H24.05V64.6h13.4V60.35a10.35,10.35,0,0,1,0-20.7Z" fill="#1b7ce4"/>
    <path id="Pfad_11" data-name="Pfad 11" d="M37.45,39.65v20.7a10.35,10.35,0,1,0,0-20.7Z" fill="#1b7ce4"/>
    <g id="Gruppe_1" data-name="Gruppe 1" transform="translate(-42)">
      <path id="Pfad_5" data-name="Pfad 5" d="M95.87,44.15a1.78,1.78,0,1,1,1.78,1.78,1.8,1.8,0,0,1-1.78-1.78Zm.29,2.65h3v9.9h-3Z" fill="#1b7ce4"/>
      <path id="Pfad_6" data-name="Pfad 6" d="M112,51.75A5,5,0,0,1,107.23,57a3.72,3.72,0,0,1-3-1.21v4.89h-3V46.8h3v.93a3.71,3.71,0,0,1,3-1.2A5,5,0,0,1,112,51.75Zm-3,0a2.36,2.36,0,1,0-2.35,2.42A2.26,2.26,0,0,0,109,51.75Z" fill="#1b7ce4"/>
      <path id="Pfad_7" data-name="Pfad 7" d="M121.13,53.73c0,2.28-2,3.25-4.12,3.25a4.34,4.34,0,0,1-4.26-2.36l2.58-1.46A1.62,1.62,0,0,0,117,54.33c.71,0,1.07-.22,1.07-.62,0-1.09-4.87-.51-4.87-3.94,0-2.16,1.82-3.24,3.88-3.24A4.34,4.34,0,0,1,121,48.64L118.42,50a1.46,1.46,0,0,0-1.33-.87c-.52,0-.83.2-.83.55C116.26,50.82,121.13,50.07,121.13,53.73Z" fill="#1b7ce4"/>
      <path id="Pfad_8" data-name="Pfad 8" d="M132,46.8v9.9h-3v-.93A3.41,3.41,0,0,1,126.18,57c-2,0-3.71-1.43-3.71-4.1V46.8h3v5.65a1.64,1.64,0,0,0,1.73,1.8,1.752,1.752,0,0,0,1.84-2V46.8Z" fill="#1b7ce4"/>
      <path id="Pfad_9" data-name="Pfad 9" d="M149,50.62V56.7h-3V50.88c0-1-.47-1.62-1.42-1.62s-1.55.69-1.55,1.86V56.7h-3V50.88c0-1-.47-1.62-1.42-1.62s-1.55.69-1.55,1.86V56.7h-3V46.8h3v.91a3.06,3.06,0,0,1,2.66-1.18,2.93,2.93,0,0,1,2.59,1.3,3.26,3.26,0,0,1,2.87-1.3C147.52,46.53,149,48.15,149,50.62Z" fill="#1b7ce4"/>
      <circle id="Ellipse_1" data-name="Ellipse 1" cx="2.2" cy="2.2" r="2.2" transform="translate(149.32 42.34)" fill="#1b7ce4"/>
    </g>
  </g>
</svg>
