<svg xmlns="http://www.w3.org/2000/svg" width="82.719" height="24.916" viewBox="0 0 82.719 24.916">
  <g id="logo-1" transform="translate(-29.52 -38.229)">
    <path id="Pfad_1" data-name="Pfad 1" d="M99.75,45.08a1.64,1.64,0,1,1,1.64,1.57,1.58,1.58,0,0,1-1.62-1.56Zm0,2.36H103V57.3H99.8Zm14.94,4.93c0,3.21-1.44,5.07-3.89,5.07a3.07,3.07,0,0,1-3-1.83h-.06v4.86h-3.21v-13h3.19v1.76h.06a3.09,3.09,0,0,1,3-1.9c2.52-.02,3.97,1.83,3.97,5.05Zm-3.27,0c0-1.56-.73-2.57-1.86-2.57s-1.84,1-1.85,2.57.72,2.56,1.85,2.56,1.92-.93,1.92-2.55Zm8.75-5.16c2.69,0,4.36,1.27,4.38,3.31h-2.93c0-.71-.59-1.15-1.47-1.15s-1.3.34-1.3.85.37.67,1.11.82l2.06.42c2,.42,2.8,1.22,2.8,2.71,0,2-1.85,3.36-4.6,3.36s-4.54-1.32-4.67-3.33h3.11c.09.73.67,1.16,1.61,1.16s1.38-.3,1.38-.83-.3-.62-1.07-.78l-1.86-.39c-1.93-.41-2.94-1.42-2.94-2.93.06-1.96,1.74-3.21,4.45-3.21Zm15.4,10.08h-3.11V55.44h-.06a2.82,2.82,0,0,1-2.87,2.05A3.43,3.43,0,0,1,126,53.78V47.45h3.21v5.64c0,1.16.61,1.79,1.61,1.79A1.64,1.64,0,0,0,132.43,53V47.45h3.2Zm1.55-9.85h3.12v1.9h.07a2.86,2.86,0,0,1,2.81-2.08,2.56,2.56,0,0,1,2.74,2.09H146a3,3,0,0,1,3-2.09,3.12,3.12,0,0,1,3.23,3.35V57.3H149V51.43c0-1-.47-1.56-1.38-1.56a1.4,1.4,0,0,0-1.41,1.59V57.3h-3.06V51.4c0-1-.49-1.53-1.37-1.53a1.43,1.43,0,0,0-1.43,1.61V57.3h-3.21Z" transform="translate(-40 1)" fill="#1b7ce4"/>
    <path id="Pfad_2" data-name="Pfad 2" d="M50.52,43.563a8.333,8.333,0,0,0-14.474-5.634H25.52V60.146H47.745V49.763A8.325,8.325,0,0,0,50.52,43.563Zm-4.276,0a4.065,4.065,0,1,1-4.065-4.057,4.065,4.065,0,0,1,4.065,4.057ZM43.469,55.869H29.8V42.205h4.167a8.055,8.055,0,0,0-.127,1.358A8.35,8.35,0,0,0,42.178,51.9a8.156,8.156,0,0,0,1.29-.11Z" transform="translate(4 3)" fill="#1b7ce4"/>
  </g>
</svg>
