<svg xmlns="http://www.w3.org/2000/svg" width="92.646" height="26.666" viewBox="0 0 92.646 26.666">
  <g id="logo-8" transform="translate(-21.07 -36.668)">
    <path id="Pfad_13" data-name="Pfad 13" d="M41.419,48.371A3.656,3.656,0,0,0,40.373,51.3l-.018-.018a4.344,4.344,0,0,1-4.694,4.694l.018.018A3.678,3.678,0,1,0,39,59.312l.019.018a4.344,4.344,0,0,1,4.694-4.694l-.019-.018a3.671,3.671,0,1,0-2.272-6.247Z" fill="#1673df"/>
    <path id="Pfad_14" data-name="Pfad 14" d="M34.042,53.636l-.019-.018A3.631,3.631,0,0,0,38,49.644l.019.018a4.344,4.344,0,0,1,4.694-4.694l-.019-.018a3.678,3.678,0,1,0-3.318-3.318l-.018-.019a4.343,4.343,0,0,1-4.694,4.694l.018.019A3.631,3.631,0,0,0,30.7,50.3l-.018-.018a4.345,4.345,0,0,1-4.694,4.694l.018.018a3.678,3.678,0,1,0,3.318,3.318l.019.018a4.344,4.344,0,0,1,4.694-4.694Z" fill="#1673df"/>
    <path id="Pfad_15" data-name="Pfad 15" d="M27.34,51.629A3.652,3.652,0,0,0,28.385,48.7l.019.018a4.344,4.344,0,0,1,4.7-4.694l-.019-.018a3.677,3.677,0,1,0-3.318-3.318l-.018-.018a4.344,4.344,0,0,1-4.694,4.694l.018.018a3.671,3.671,0,1,0,2.273,6.247Z" fill="#1673df"/>
    <g id="Gruppe_1" data-name="Gruppe 1" transform="translate(-43 -1)">
      <path id="Pfad_20" data-name="Pfad 20" d="M98.861,43.556a1.782,1.782,0,1,1,1.782,1.782A1.8,1.8,0,0,1,98.861,43.556Zm.3,2.653h2.971v9.9H99.157Z" fill="#1673df"/>
      <path id="Pfad_21" data-name="Pfad 21" d="M114.956,51.159a4.971,4.971,0,0,1-4.732,5.226,3.715,3.715,0,0,1-2.949-1.208v4.891h-2.97V46.209h2.97v.93a3.717,3.717,0,0,1,2.949-1.207,4.97,4.97,0,0,1,4.732,5.227Zm-2.97,0a2.356,2.356,0,1,0-2.355,2.415,2.26,2.26,0,0,0,2.355-2.415Z" fill="#1673df"/>
      <path id="Pfad_22" data-name="Pfad 22" d="M124.121,53.138c0,2.277-1.979,3.247-4.117,3.247a4.335,4.335,0,0,1-4.257-2.356l2.573-1.465A1.627,1.627,0,0,0,120,53.732c.712,0,1.069-.218,1.069-.613,0-1.09-4.871-.515-4.871-3.94,0-2.159,1.822-3.247,3.881-3.247a4.329,4.329,0,0,1,3.86,2.118L121.4,49.416a1.437,1.437,0,0,0-1.326-.871c-.515,0-.832.2-.832.554C119.251,50.228,124.121,49.475,124.121,53.138Z" fill="#1673df"/>
      <path id="Pfad_23" data-name="Pfad 23" d="M134.97,46.209v9.9H132v-.931a3.382,3.382,0,0,1-2.83,1.208c-2,0-3.7-1.425-3.7-4.1V46.209h2.97v5.642a1.632,1.632,0,0,0,1.722,1.8c1.089,0,1.841-.633,1.841-2.039v-5.4Z" fill="#1673df"/>
      <path id="Pfad_24" data-name="Pfad 24" d="M152,50.03v6.078h-2.97V50.287c0-.99-.475-1.623-1.425-1.623-.99,0-1.545.693-1.545,1.861v5.583h-2.969V50.287c0-.99-.475-1.623-1.426-1.623-.99,0-1.544.693-1.544,1.861v5.583h-2.97v-9.9h2.97v.91a3.039,3.039,0,0,1,2.653-1.187,2.945,2.945,0,0,1,2.593,1.306,3.262,3.262,0,0,1,2.871-1.306C150.511,45.932,152,47.555,152,50.03Z" fill="#1673df"/>
      <circle id="Ellipse_1" data-name="Ellipse 1" cx="2.204" cy="2.204" r="2.204" transform="translate(152.308 41.74)" fill="#1673df"/>
    </g>
  </g>
</svg>
